<svg width="33" height="40" viewBox="0 0 33 40" fill="none" xmlns="http://www.w3.org/2000/svg">
<path d="M17.9697 17.0017C17.2385 17.0017 16.5372 16.7112 16.0202 16.1941C15.5031 15.6771 15.2126 14.9758 15.2126 14.2446C15.2126 13.5134 15.5031 12.8121 16.0202 12.2951C16.5372 11.778 17.2385 11.4876 17.9697 11.4876C20.2845 11.485 22.5035 10.5644 24.1404 8.9277C25.777 7.29098 26.6979 5.07185 26.7005 2.75714C26.7005 2.02593 26.9909 1.32466 27.5081 0.807613C28.025 0.290567 28.7263 9.15527e-05 29.4574 9.15527e-05C30.1888 9.15527e-05 30.8901 0.290567 31.407 0.807613C31.9241 1.32466 32.2146 2.02593 32.2146 2.75714C32.2102 6.53376 30.7082 10.1545 28.0376 12.8249C25.3671 15.4954 21.7464 16.9975 17.9697 17.0017Z" fill="white"/>
<path d="M2.75727 39.9772C2.02603 39.9772 1.32474 39.6867 0.807675 39.1696C0.29061 38.6525 0.00012207 37.9514 0.00012207 37.22C0.00436812 33.4434 1.50654 29.8226 4.17706 27.1521C6.84759 24.4816 10.4684 22.9795 14.245 22.9753C14.9762 22.9753 15.6775 23.2658 16.1945 23.7829C16.7116 24.2998 17.0021 25.0011 17.0021 25.7325C17.0021 26.4636 16.7116 27.1649 16.1945 27.6819C15.6775 28.199 14.9762 28.4894 14.245 28.4894C11.9303 28.4921 9.71112 29.4127 8.07435 31.0493C6.43758 32.6862 5.51686 34.9053 5.51422 37.22C5.51422 37.9512 5.22377 38.6525 4.70674 39.1696C4.18972 39.6867 3.48848 39.9772 2.75727 39.9772Z" fill="white"/>
<path d="M17.9697 39.9772C17.2424 39.9711 16.547 39.678 16.0349 39.1617C15.5227 38.6453 15.2354 37.9474 15.2354 37.22C15.2354 36.4929 15.5227 35.7949 16.0349 35.2786C16.547 34.7622 17.2424 34.4691 17.9697 34.4631C19.1162 34.4631 20.2516 34.2372 21.3108 33.7986C22.3701 33.3598 23.3324 32.7166 24.1432 31.906C24.954 31.0952 25.597 30.1327 26.0358 29.0735C26.4746 28.0142 26.7003 26.8788 26.7003 25.7323C26.7003 24.5857 26.4746 23.4505 26.0358 22.3912C25.597 21.3321 24.954 20.3695 24.1432 19.5588C23.3324 18.7481 22.3701 18.105 21.3108 17.6662C20.2516 17.2275 19.1162 17.0016 17.9697 17.0016C17.2385 17.0016 16.5372 16.7112 16.0202 16.1941C15.5031 15.6771 15.2126 14.9758 15.2126 14.2446C15.2126 13.5134 15.5031 12.8121 16.0202 12.2951C16.5372 11.778 17.2385 11.4876 17.9697 11.4876C19.8447 11.4807 21.7026 11.8442 23.4368 12.557C25.1712 13.2698 26.7477 14.3179 28.0758 15.6414C29.404 16.9648 30.4581 18.5375 31.1771 20.2691C31.8962 22.0007 32.2665 23.8573 32.2665 25.7323C32.2665 27.6073 31.8962 29.464 31.1771 31.1956C30.4581 32.9272 29.404 34.4999 28.0758 35.8232C26.7477 37.1468 25.1712 38.195 23.4368 38.9078C21.7026 39.6207 19.8447 39.984 17.9697 39.9772Z" fill="white"/>
<path d="M27.8433 13.0148C29.2262 11.6883 30.3265 10.0956 31.0776 8.33282C31.8289 6.56998 32.2156 4.67337 32.2147 2.75714C32.2147 2.02593 31.9242 1.32466 31.4071 0.807613C30.8902 0.290567 30.1889 9.15527e-05 29.4577 9.15527e-05C28.7264 9.15527e-05 28.0251 0.290567 27.5082 0.807613C26.991 1.32466 26.7006 2.02593 26.7006 2.75714C26.6998 4.24019 26.3214 5.69864 25.6009 6.99492C24.8805 8.29121 23.8417 9.38263 22.5825 10.1663C24.5181 10.7322 26.3114 11.7032 27.8433 13.0148Z" fill="white"/>
<path d="M14.2462 28.4894C10.4682 28.4894 6.84503 26.9886 4.17365 24.3172C1.50224 21.6459 0.00146484 18.0226 0.00146484 14.2447C0.00146484 10.4668 1.50224 6.84358 4.17365 4.17218C6.84503 1.50078 10.4682 0 14.2462 0C14.9774 0 15.6786 0.290475 16.1957 0.807521C16.7128 1.32457 17.0032 2.02584 17.0032 2.75705C17.0032 3.48826 16.7128 4.18952 16.1957 4.70658C15.6786 5.22362 14.9774 5.5141 14.2462 5.5141C13.0996 5.5141 11.9644 5.73991 10.9051 6.17867C9.84586 6.61743 8.88342 7.26052 8.0727 8.07123C7.26199 8.88195 6.6189 9.84439 6.18014 10.9037C5.74138 11.9629 5.51557 13.0982 5.51557 14.2447C5.51557 15.3912 5.74138 16.5265 6.18014 17.5858C6.6189 18.645 7.26199 19.6074 8.0727 20.4182C8.88342 21.2288 9.84586 21.872 10.9051 22.3108C11.9644 22.7494 13.0996 22.9753 14.2462 22.9753C14.9774 22.9753 15.6786 23.2658 16.1957 23.7829C16.7128 24.2998 17.0032 25.0011 17.0032 25.7323C17.0032 26.4636 16.7128 27.1649 16.1957 27.6818C15.6786 28.199 14.9774 28.4894 14.2462 28.4894Z" fill="white"/>
<path d="M4.37162 26.9622C2.98869 28.2888 1.88848 29.8813 1.1372 31.6442C0.385928 33.4071 -0.000871555 35.3037 9.4371e-05 37.22C-0.0029171 37.5841 0.0661732 37.9449 0.203378 38.2822C0.340582 38.6192 0.543188 38.9259 0.799503 39.1843C1.05582 39.4429 1.36077 39.648 1.69677 39.7879C2.03276 39.9279 2.39316 40 2.75714 40C3.12114 40 3.48154 39.9279 3.81753 39.7879C4.15353 39.648 4.45848 39.4429 4.71479 39.1843C4.9711 38.9259 5.1737 38.6192 5.31091 38.2822C5.44812 37.9449 5.51721 37.5841 5.51419 37.22C5.51493 35.737 5.8934 34.2785 6.61393 32.9821C7.33444 31.6857 8.37328 30.5943 9.63245 29.8107C7.6968 29.2447 5.90358 28.2737 4.37162 26.9622Z" fill="white"/>
</svg>
